# This file uses centimeters as units for non-parametric coordinates.

v -6.789967 6.990000 -1.678955
v -6.869984 -6.990001 -1.678973
v 6.950010 6.990002 -1.678955
v 6.950014 -6.989999 -1.678973
v 6.950012 -6.989990 12.041027
v 6.950010 6.989990 12.041016
v -6.950001 6.989990 12.041016
v -6.950001 -6.989990 12.041027
vt 0.000178 1.000143
vt 0.000168 1.000364
vt 0.000168 1.000364
vt 0.000001 0.999999
vt 0.000001 0.999999
vt 0.000226 0.999762
vt 0.000226 0.999762
vt 0.000178 1.000143
vn 0.000000 0.000000 1.000000
vn 0.000000 0.000000 1.000000
vn 0.000000 0.000000 1.000000
vn 0.000000 0.000000 -1.000000
vn 0.000000 0.000000 -1.000000
vn 0.000000 0.000000 -1.000000
vn 0.000000 0.000000 -1.000000
vn 0.000000 0.000000 -1.000000
vn 0.000000 0.000000 -1.000000
vn 0.000000 -1.000000 0.000000
vn 0.000000 -1.000000 0.000000
vn 0.000000 -1.000000 0.000000
vn 0.000000 -1.000000 0.000000
vn 0.000000 -1.000000 0.000000
vn 0.000000 -1.000000 0.000000
vn 0.000000 0.000000 1.000000
f 2/1/1 3/2/2 1/3/3
f 7/4/4 6/5/5 8/6/6
f 8/6/7 6/5/8 5/7/9
f 3/2/10 6/5/11 1/3/12
f 1/3/13 6/5/14 7/4/15
f 4/8/16 3/2/2 2/1/1
